<svg width="24" height="24" xmlns="http://www.w3.org/2000/svg" aria-hidden="true" stroke-width="1.5" stroke="currentColor" fill="none">

 <g>
  <title>Layer 1</title>
  <path stroke="#ffffff" id="svg_1" d="m20.25,14.15l0,4.25c0,1.094 -0.787,2.036 -1.872,2.18c-2.087,0.277 -4.216,0.42 -6.378,0.42s-4.291,-0.143 -6.378,-0.42c-1.085,-0.144 -1.872,-1.086 -1.872,-2.18l0,-4.25m16.5,0a2.18,2.18 0 0 0 0.75,-1.661l0,-3.783c0,-1.081 -0.768,-2.015 -1.837,-2.175a48.114,48.114 0 0 0 -3.413,-0.387m4.5,8.006c-0.194,0.165 -0.42,0.295 -0.673,0.38a23.978,23.978 0 0 1 -7.577,1.22a24,24 0 0 1 -7.577,-1.22a2.016,2.016 0 0 1 -0.673,-0.38m0,0a2.18,2.18 0 0 1 -0.75,-1.661l0,-3.783c0,-1.081 0.768,-2.015 1.837,-2.175a48.111,48.111 0 0 1 3.413,-0.387m7.5,0l0,-0.894a2.25,2.25 0 0 0 -2.25,-2.25l-3,0a2.25,2.25 0 0 0 -2.25,2.25l0,0.894m7.5,0a48.667,48.667 0 0 0 -7.5,0m3.75,6.606l0.008,0l0,0.008l-0.008,0l0,-0.008z" stroke-linejoin="round" stroke-linecap="round"/>
 </g>
</svg>