<?xml version="1.0" encoding="utf-8"?>
<svg viewBox="69 24 375 420" style="enable-background:new 0 0 500 500;" xmlns="http://www.w3.org/2000/svg">
<g id="Background">
  <rect style="fill:#205297;" width="500" height="500"></rect>
</g>

  <g>
    <polygon style="fill:rgba(0,0,0,0.1);" points="179.415,350.1 199.943,338.171 339.455,418.581 318.928,430.51 &#9;&#9;&#9;"/>
  </g>
  <g>
    <g>
      <g>
        <g style="enable-background:new    ;">
          <g>
            <path style="fill:#8FA3AD;" d="M324.336,395.394l-11.474,6.668c2.652-1.542,4.297-4.819,4.31-9.471l11.474-6.668 C328.632,390.575,326.988,393.852,324.336,395.394z"/>
          </g>
          <g>
            <path style="fill:#FFFFFF;" d="M191.615,56.096l11.474-6.668c2.684-1.56,6.399-1.34,10.498,1.027l-11.473,6.668 C198.014,54.756,194.299,54.536,191.615,56.096z"/>
          </g>
          <g>
            <polygon style="fill:#AFBDC4;" points="317.758,140.889 329.232,134.221 328.646,385.922 317.172,392.59 &#9;&#9;&#9;&#9;&#9;&#9;&#9;"/>
          </g>
          <g>
            <polygon style="fill:#EBEEF0;" points="202.114,57.122 213.587,50.455 314.51,108.723 303.037,115.391 &#9;&#9;&#9;&#9;&#9;&#9;&#9;"/>
          </g>
          <g>
            <path style="fill:#FFFFFF;" d="M317.758,140.889c0.027-9.375-6.562-20.788-14.721-25.498L202.114,57.122 c-8.149-4.705-14.781-0.925-14.807,8.45l-0.024,10.143l130.452,75.316L317.758,140.889z"/>
            <path style="fill:#FFFFFF;" d="M186.72,317.273c-0.027,9.363,6.562,20.788,14.711,25.493l100.923,58.268 c8.159,4.711,14.791,0.919,14.818-8.444l0.043-18.452l-130.452-75.316L186.72,317.273z"/>
            <polygon style="fill:#333741;" points="187.283,75.715 186.763,298.822 317.215,374.138 317.735,151.032 &#9;&#9;&#9;&#9;&#9;&#9;&#9;"/>
          </g>
          <g>
            <path style="fill:#CED7DB;" d="M303.037,115.391l11.474-6.668c8.159,4.711,14.748,16.123,14.721,25.498l-11.474,6.668 C317.785,131.514,311.196,120.101,303.037,115.391z"/>
          </g>
        </g>
      </g>
    </g>
    <g>
      <path style="fill:#EBEEF0;" d="M247.949,342.606c5.686,3.26,10.299,11.197,10.3,17.719c0.001,6.522-4.611,9.169-10.297,5.909 c-5.686-3.26-10.299-11.197-10.3-17.719C237.651,341.992,242.263,339.346,247.949,342.606z"/>
    </g>
  </g>
  <g style="opacity:0.29;">
    <g style="opacity:0.15;">
      <path style="fill:#FFFFFF;" d="M303.541,279.792c4.123,2.38,7.458,8.158,7.445,12.896l-0.071,25.246 c-0.013,4.738-3.37,6.651-7.493,4.27l-1.454-0.84l-0.031,11.047l-7.471-15.379l-76.132-43.958 c-4.123-2.381-7.458-8.158-7.445-12.896l0.071-25.246c0.013-4.738,3.37-6.651,7.493-4.27L303.541,279.792z"/>
    </g>
    <g style="opacity:0.15;">
      <path style="fill:#FFFFFF;" d="M303.541,159.322c4.13,2.384,7.458,8.158,7.445,12.903l-0.02,7.095 c-0.013,4.746-3.364,6.663-7.493,4.278l-1.454-0.839l-0.031,11.047l-7.471-15.379l-53.997-31.177 c-4.13-2.384-7.465-8.162-7.452-12.907l0.02-7.095c0.013-4.745,3.37-6.659,7.5-4.274L303.541,159.322z"/>
    </g>
    <g style="opacity:0.26;">
      <path style="fill:#FFFFFF;" d="M261.097,189.794l-70.336-40.611c-1.255-0.725-2.438-1.047-3.479-1.017v40.568 c1.01,1.172,2.149,2.169,3.359,2.868l1.454,0.84l-0.031,11.047l7.533-6.716l61.38,35.44c4.123,2.381,7.48,0.467,7.493-4.278 l0.071-25.238C268.556,197.952,265.22,192.175,261.097,189.794z"/>
    </g>
  </g>
  <g>
    <g>
      <g style="enable-background:new    ;">
        <g>
          <path style="fill:#FEB64D;" d="M318.84,91.705c14.938,8.625,27.049,29.601,27.001,46.767l-6.06-3.498 c0.038-13.326-9.363-29.61-20.961-36.305L318.84,91.705z"/>
        </g>
        <g>
          <path style="fill:#FEA626;" d="M318.84,91.705l3.439-1.999c14.939,8.625,27.049,29.601,27,46.767l-3.439,1.999 C345.89,121.307,333.779,100.33,318.84,91.705z"/>
        </g>
        <g>
          <path style="fill:#FEB64D;" d="M318.883,76.562c22.205,12.82,40.216,44.007,40.144,69.523l-6.06-3.498 c0.061-21.676-15.24-48.179-34.104-59.07L318.883,76.562z"/>
        </g>
        <g>
          <path style="fill:#FEA626;" d="M318.883,76.562l3.439-1.999c22.205,12.82,40.216,44.007,40.144,69.523l-3.439,1.999 C359.099,120.569,341.089,89.383,318.883,76.562z"/>
        </g>
        <g>
          <path style="fill:#FEB64D;" d="M318.928,60.632c29.846,17.232,54.052,59.158,53.954,93.453l-6.059-3.499 c0.086-30.456-21.41-67.689-47.915-82.992L318.928,60.632z"/>
        </g>
        <g>
          <path style="fill:#FEA626;" d="M318.928,60.632l3.439-1.999c29.846,17.232,54.052,59.158,53.954,93.453l-3.439,1.999 C372.98,119.79,348.775,77.863,318.928,60.632z"/>
        </g>
      </g>
    </g>
  </g>
  <g>
    <g>
      <g>
        <g style="enable-background:new    ;">
          <g>
            <path style="fill:#E3F1FC;" d="M176.542,230.144l2.932-1.704c1.358-0.789,3.239-0.679,5.314,0.519l-2.932,1.704 C179.781,229.465,177.9,229.354,176.542,230.144z"/>
          </g>
          <g>
            <polygon style="fill:#E3F1FC;" points="265.371,321.364 268.302,319.66 268.271,330.708 265.339,332.412 &#9;&#9;&#9;&#9;&#9;&#9;&#9;"/>
          </g>
          <g>
            <path style="fill:#E3F1FC;" d="M275.07,321.019l-2.932,1.704c1.341-0.779,2.173-2.436,2.18-4.79l2.932-1.704 C277.243,318.583,276.411,320.24,275.07,321.019z"/>
          </g>
          <g>
            <polygon style="fill:#E3F1FC;" points="274.389,292.688 277.321,290.984 277.249,316.229 274.318,317.933 &#9;&#9;&#9;&#9;&#9;&#9;&#9;"/>
          </g>
          <g>
            <polygon style="fill:#E3F1FC;" points="181.856,230.663 184.788,228.959 269.876,278.088 266.944,279.792 &#9;&#9;&#9;&#9;&#9;&#9;&#9;"/>
          </g>
          <g>
            <path style="fill:#FFFFFF;" d="M266.944,279.792c4.123,2.38,7.458,8.158,7.445,12.896l-0.071,25.246 c-0.013,4.738-3.37,6.651-7.493,4.27l-1.454-0.84l-0.031,11.047l-7.471-15.379l-76.132-43.958 c-4.123-2.381-7.458-8.158-7.445-12.896l0.071-25.246c0.013-4.738,3.37-6.651,7.493-4.27L266.944,279.792z"/>
          </g>
          <g>
            <path style="fill:#E3F1FC;" d="M266.944,279.792l2.932-1.704c4.123,2.381,7.458,8.158,7.445,12.896l-2.932,1.704 C274.402,287.95,271.067,282.172,266.944,279.792z"/>
          </g>
        </g>
      </g>
    </g>
    <g>
      <g>
        <g style="enable-background:new    ;">
          <g>
            <path style="fill:#E3F1FC;" d="M198.671,122.452l2.932-1.704c1.359-0.79,3.242-0.678,5.32,0.522l-2.932,1.704 C201.913,121.774,200.031,121.662,198.671,122.452z"/>
          </g>
          <g>
            <polygon style="fill:#E3F1FC;" points="265.422,182.76 268.353,181.056 268.322,192.103 265.391,193.807 &#9;&#9;&#9;&#9;&#9;&#9;&#9;"/>
          </g>
          <g>
            <path style="fill:#E3F1FC;" d="M275.12,182.417l-2.932,1.704c1.342-0.78,2.174-2.44,2.18-4.8l2.932-1.704 C277.294,179.977,276.462,181.637,275.12,182.417z"/>
          </g>
          <g>
            <polygon style="fill:#E3F1FC;" points="274.389,172.226 277.321,170.522 277.301,177.617 274.369,179.321 &#9;&#9;&#9;&#9;&#9;&#9;&#9;"/>
          </g>
          <g>
            <polygon style="fill:#E3F1FC;" points="203.991,122.974 206.923,121.27 269.876,157.619 266.944,159.322 &#9;&#9;&#9;&#9;&#9;&#9;&#9;"/>
          </g>
          <g>
            <path style="fill:#FFFFFF;" d="M266.944,159.322c4.13,2.384,7.458,8.158,7.445,12.903l-0.02,7.095 c-0.013,4.746-3.364,6.663-7.493,4.278l-1.454-0.839l-0.031,11.047l-7.471-15.379l-53.997-31.177 c-4.13-2.384-7.465-8.162-7.452-12.907l0.02-7.095c0.013-4.745,3.37-6.659,7.5-4.274L266.944,159.322z"/>
          </g>
          <g>
            <path style="fill:#E3F1FC;" d="M266.944,159.322l2.932-1.704c4.13,2.384,7.458,8.158,7.445,12.903l-2.932,1.704 C274.402,167.48,271.074,161.707,266.944,159.322z"/>
          </g>
        </g>
      </g>
    </g>
    <g>
      <g>
        <g style="enable-background:new    ;">
          <g>
            <polygon style="fill:#80D3F8;" points="163.001,196.774 165.933,195.07 158.399,201.786 155.468,203.489 &#9;&#9;&#9;&#9;&#9;&#9;&#9;"/>
          </g>
          <g>
            <path style="fill:#80D3F8;" d="M148.852,148.664l2.932-1.704c1.358-0.789,3.238-0.678,5.312,0.519l-2.932,1.704 C152.091,147.986,150.211,147.874,148.852,148.664z"/>
          </g>
          <g>
            <path style="fill:#80D3F8;" d="M232.625,231.029l-2.932,1.704c1.342-0.78,2.174-2.439,2.181-4.797l2.932-1.704 C234.799,228.59,233.967,230.249,232.625,231.029z"/>
          </g>
          <g>
            <polygon style="fill:#80D3F8;" points="231.945,202.698 234.877,200.994 234.806,226.232 231.874,227.936 &#9;&#9;&#9;&#9;&#9;&#9;&#9;"/>
          </g>
          <g>
            <polygon style="fill:#80D3F8;" points="154.165,149.183 157.096,147.479 227.432,188.09 224.501,189.794 &#9;&#9;&#9;&#9;&#9;&#9;&#9;"/>
          </g>
          <g>
            <path style="fill:#B2E4FB;" d="M224.501,189.794c4.123,2.381,7.458,8.158,7.445,12.903l-0.071,25.238 c-0.013,4.745-3.37,6.659-7.493,4.278l-61.38-35.44l-7.533,6.716l0.031-11.047l-1.454-0.84 c-4.123-2.38-7.458-8.158-7.445-12.903l0.071-25.238c0.013-4.745,3.37-6.659,7.493-4.278L224.501,189.794z"/>
          </g>
          <g>
            <path style="fill:#80D3F8;" d="M224.501,189.794l2.932-1.704c4.123,2.381,7.458,8.158,7.445,12.903l-2.932,1.704 C231.959,197.952,228.624,192.175,224.501,189.794z"/>
          </g>
        </g>
      </g>
    </g>
  </g>
  <g>
    <g>
      <g style="enable-background:new    ;">
        <g>
          <path style="fill:#0097A5;" d="M364.029,264.343l-3.049,1.772c0.461-0.268,0.747-0.835,0.75-1.639l3.049-1.772 C364.777,263.508,364.49,264.075,364.029,264.343z"/>
        </g>
        <g>
          <path style="fill:#0097A5;" d="M350.915,248.71l3.049-1.772c0.466-0.271,1.108-0.235,1.813,0.172l-3.049,1.772 C352.023,248.475,351.38,248.439,350.915,248.71z"/>
        </g>
        <g>
          <polygon style="fill:#0097A5;" points="361.743,259.984 364.792,258.212 364.779,262.703 361.73,264.475 &#9;&#9;&#9;&#9;&#9;&#9;"/>
        </g>
        <g>
          <polygon style="fill:#0097A5;" points="352.728,248.882 355.777,247.11 359.692,249.371 356.643,251.143 &#9;&#9;&#9;&#9;&#9;&#9;"/>
        </g>
        <g>
          <polygon style="fill:#0097A5;" points="361.759,254.097 364.808,252.325 368.716,254.581 365.667,256.353 &#9;&#9;&#9;&#9;&#9;&#9;"/>
        </g>
        <g>
          <polygon style="fill:#0097A5;" points="361.772,249.606 364.821,247.834 364.808,252.325 361.759,254.097 &#9;&#9;&#9;&#9;&#9;&#9;"/>
        </g>
        <g>
          <path style="fill:#0097A5;" d="M357.406,245.011l3.049-1.772c0.466-0.271,1.108-0.235,1.813,0.172l-3.049,1.772 C358.514,244.776,357.871,244.74,357.406,245.011z"/>
        </g>
        <g>
          <path style="fill:#0097A5;" d="M370.52,260.643l-3.049,1.772c0.461-0.268,0.747-0.835,0.75-1.639 c0.005-1.619-1.145-3.61-2.553-4.423l3.049-1.772c1.409,0.813,2.558,2.804,2.553,4.423 C371.267,259.808,370.981,260.376,370.52,260.643z"/>
        </g>
        <g>
          <path style="fill:#0097A5;" d="M359.219,245.183l3.049-1.772c1.409,0.813,2.558,2.804,2.553,4.423l-3.049,1.772 C361.776,247.987,360.627,245.996,359.219,245.183z"/>
        </g>
        <g>
          <path style="fill:#00ABBF;" d="M359.219,245.183c1.409,0.813,2.558,2.804,2.553,4.423l-0.013,4.491l3.908,2.256 c1.409,0.813,2.558,2.804,2.553,4.423c-0.004,1.619-1.161,2.278-2.57,1.465l-3.908-2.257l-0.013,4.491 c-0.005,1.619-1.161,2.278-2.57,1.465c-1.402-0.809-2.551-2.8-2.547-4.419l0.013-4.491l-3.915-2.261 c-1.402-0.809-2.551-2.8-2.547-4.419c0.005-1.619,1.161-2.278,2.563-1.469l3.915,2.261l0.013-4.491 C356.66,245.033,357.817,244.374,359.219,245.183z"/>
        </g>
      </g>
    </g>
  </g>
  <g>
    <g>
      <g style="enable-background:new    ;">
        <g>
          <path style="fill:#0097A5;" d="M115.633,251.347l-1.989,1.156c0.301-0.175,0.488-0.545,0.489-1.07l1.989-1.156 C116.12,250.802,115.933,251.172,115.633,251.347z"/>
        </g>
        <g>
          <path style="fill:#0097A5;" d="M107.076,241.146l1.989-1.156c0.304-0.177,0.723-0.153,1.183,0.112l-1.989,1.156 C107.799,240.993,107.379,240.97,107.076,241.146z"/>
        </g>
        <g>
          <polygon style="fill:#0097A5;" points="114.141,248.503 116.13,247.347 116.122,250.277 114.132,251.433 &#9;&#9;&#9;&#9;&#9;&#9;"/>
        </g>
        <g>
          <polygon style="fill:#0097A5;" points="108.258,241.258 110.248,240.102 112.802,241.577 110.813,242.733 &#9;&#9;&#9;&#9;&#9;&#9;"/>
        </g>
        <g>
          <polygon style="fill:#0097A5;" points="114.152,244.661 116.141,243.505 118.691,244.977 116.702,246.134 &#9;&#9;&#9;&#9;&#9;&#9;"/>
        </g>
        <g>
          <polygon style="fill:#0097A5;" points="114.16,241.731 116.149,240.574 116.141,243.505 114.152,244.661 &#9;&#9;&#9;&#9;&#9;&#9;"/>
        </g>
        <g>
          <path style="fill:#0097A5;" d="M111.311,238.733l1.989-1.156c0.304-0.177,0.723-0.153,1.183,0.112l-1.989,1.156 C112.034,238.579,111.615,238.556,111.311,238.733z"/>
        </g>
        <g>
          <path style="fill:#0097A5;" d="M119.868,248.933l-1.989,1.156c0.301-0.175,0.488-0.545,0.489-1.07 c0.003-1.056-0.747-2.355-1.666-2.886l1.989-1.156c0.919,0.531,1.669,1.83,1.666,2.886 C120.356,248.388,120.169,248.758,119.868,248.933z"/>
        </g>
        <g>
          <path style="fill:#0097A5;" d="M112.494,238.845l1.989-1.156c0.919,0.531,1.669,1.83,1.666,2.886l-1.989,1.156 C114.163,240.674,113.413,239.375,112.494,238.845z"/>
        </g>
        <g>
          <path style="fill:#00ABBF;" d="M112.494,238.845c0.919,0.531,1.669,1.83,1.666,2.886l-0.008,2.93l2.55,1.472 c0.919,0.531,1.669,1.83,1.666,2.886c-0.003,1.056-0.758,1.486-1.677,0.956l-2.55-1.472l-0.008,2.93 c-0.003,1.056-0.758,1.486-1.677,0.956c-0.915-0.528-1.665-1.827-1.662-2.883l0.008-2.93l-2.555-1.475 c-0.915-0.528-1.665-1.827-1.662-2.883s0.758-1.486,1.672-0.958l2.555,1.475l0.008-2.93 C110.824,238.747,111.579,238.317,112.494,238.845z"/>
        </g>
      </g>
    </g>
  </g>
  <g>
    <g>
      <g style="enable-background:new    ;">
        <g>
          <polygon style="fill:#80DDE9;" points="388.802,184.533 405.681,205.525 388.739,206.981 &#9;&#9;&#9;&#9;&#9;&#9;"/>
        </g>
        <g>
          <polygon style="fill:#4DCFE1;" points="388.802,184.533 391.852,182.761 408.73,203.753 405.681,205.525 &#9;&#9;&#9;&#9;&#9;&#9;"/>
        </g>
      </g>
    </g>
  </g>
  <g>
    <g>
      <g style="enable-background:new    ;">
        <g>
          <polygon style="fill:#00BAD3;" points="121.041,289.835 137.92,310.826 120.978,312.282 &#9;&#9;&#9;&#9;&#9;&#9;"/>
        </g>
        <g>
          <polygon style="fill:#00ABBF;" points="121.041,289.835 124.09,288.063 140.969,309.054 137.92,310.826 &#9;&#9;&#9;&#9;&#9;&#9;"/>
        </g>
      </g>
    </g>
  </g>
  <g>
    <g>
      <g style="enable-background:new    ;">
        <g>
          <polygon style="fill:#00ABBF;" points="356.43,368.733 359.479,366.961 361.203,365.978 358.154,367.75 &#9;&#9;&#9;&#9;&#9;&#9;"/>
        </g>
        <g>
          <polygon style="fill:#00ABBF;" points="377.689,379.029 380.737,377.257 382.451,380.225 379.402,381.997 &#9;&#9;&#9;&#9;&#9;&#9;"/>
        </g>
        <g>
          <path style="fill:#00ABBF;" d="M376.633,375.463l3.049-1.772c-0.003,1.111,0.374,2.393,1.055,3.566l-3.049,1.772 C377.007,377.856,376.63,376.574,376.633,375.463z"/>
        </g>
        <g>
          <path style="fill:#00ABBF;" d="M361.784,351.137l3.049-1.772c1.308-0.76,3.033-0.803,4.959-0.006l-3.049,1.772 C364.817,350.335,363.092,350.377,361.784,351.137z"/>
        </g>
        <g>
          <polygon style="fill:#00ABBF;" points="376.658,366.759 379.707,364.987 379.682,373.691 376.633,375.463 &#9;&#9;&#9;&#9;&#9;&#9;"/>
        </g>
        <g>
          <polygon style="fill:#4DCFE1;" points="366.753,347.338 369.802,345.566 372.275,346.994 369.225,348.766 &#9;&#9;&#9;&#9;&#9;&#9;"/>
        </g>
        <g>
          <polygon style="fill:#0097A5;" points="369.225,348.766 372.275,346.994 372.264,350.786 369.215,352.558 &#9;&#9;&#9;&#9;&#9;&#9;"/>
        </g>
        <g>
          <path style="fill:#00ABBF;" d="M369.215,352.558l3.049-1.772c4.217,3.126,7.457,9.162,7.443,14.2l-3.049,1.772 C376.672,361.72,373.432,355.685,369.215,352.558z"/>
        </g>
        <g>
          <path style="fill:#00BAD3;" d="M369.225,348.766l-0.011,3.793c4.217,3.126,7.457,9.162,7.443,14.2l-0.025,8.704 c-0.003,1.111,0.374,2.393,1.055,3.566l1.714,2.968l-22.973-13.264l1.725-0.983c0.679-0.387,1.069-1.227,1.072-2.338 l0.025-8.704c0.014-5.039,3.271-7.323,7.492-5.577l0.011-3.793L369.225,348.766z"/>
        </g>
      </g>
    </g>
  </g>
  <g>
    <g>
      <g style="enable-background:new    ;">
        <g>
          <polygon style="fill:#00ABBF;" points="87.765,168.701 91.641,166.449 92.926,165.706 89.051,167.958 &#9;&#9;&#9;&#9;&#9;&#9;"/>
        </g>
        <g>
          <polygon style="fill:#00ABBF;" points="103.674,176.401 107.549,174.149 108.835,176.376 104.96,178.629 &#9;&#9;&#9;&#9;&#9;&#9;"/>
        </g>
        <g>
          <path style="fill:#00ABBF;" d="M102.881,173.731l3.876-2.252c-0.002,0.827,0.285,1.791,0.792,2.67l-3.876,2.252 C103.166,175.522,102.879,174.558,102.881,173.731z"/>
        </g>
        <g>
          <path style="fill:#00ABBF;" d="M91.77,155.528l3.876-2.252c0.98-0.57,2.273-0.602,3.716-0.008l-3.876,2.252 C94.043,154.926,92.75,154.959,91.77,155.528z"/>
        </g>
        <g>
          <polygon style="fill:#00ABBF;" points="102.899,167.215 106.775,164.963 106.757,171.479 102.881,173.731 &#9;&#9;&#9;&#9;&#9;&#9;"/>
        </g>
        <g>
          <polygon style="fill:#4DCFE1;" points="95.494,152.685 99.37,150.433 101.222,151.502 97.346,153.755 &#9;&#9;&#9;&#9;&#9;&#9;"/>
        </g>
        <g>
          <polygon style="fill:#0097A5;" points="97.346,153.755 101.222,151.502 101.214,154.337 97.338,156.589 &#9;&#9;&#9;&#9;&#9;&#9;"/>
        </g>
        <g>
          <path style="fill:#00ABBF;" d="M97.338,156.589l3.876-2.252c3.149,2.344,5.572,6.854,5.561,10.626l-3.876,2.252 C102.91,163.443,100.488,158.933,97.338,156.589z"/>
        </g>
        <g>
          <path style="fill:#00BAD3;" d="M97.346,153.755l-0.008,2.834c3.15,2.344,5.572,6.854,5.561,10.626l-0.018,6.516 c-0.002,0.827,0.285,1.791,0.792,2.67l1.286,2.228l-17.195-9.928l1.286-0.743c0.511-0.291,0.803-0.921,0.805-1.748 l0.018-6.516c0.011-3.772,2.451-5.475,5.612-4.175l0.008-2.834L97.346,153.755z"/>
        </g>
      </g>
    </g>
  </g>
  <g>
    <g>
      <g style="enable-background:new    ;">
        <g>
          <path style="fill:#00BAD3;" d="M115.373,78.393l3.544-2.06c-5.411,3.084-5.44,13.156-0.063,22.468l-3.544,2.06 C109.933,91.549,109.961,81.477,115.373,78.393z"/>
        </g>
        <g>
          <path style="fill:#00BAD3;" d="M118.613,84.006l3.544-2.06c-3.608,2.056-3.627,8.78-0.042,14.997l-3.544,2.06 C114.986,92.786,115.005,86.062,118.613,84.006z"/>
        </g>
        <g>
          <path style="fill:#4DCFE1;" d="M117.149,81.47l1.464,2.536c-3.608,2.056-3.627,8.78-0.042,14.997l-1.474,0.84 C112.705,92.235,112.728,83.989,117.149,81.47z"/>
        </g>
        <g>
          <polygon style="fill:#00BAD3;" points="117.149,81.47 120.693,79.41 122.157,81.946 118.613,84.006 &#9;&#9;&#9;&#9;&#9;&#9;"/>
        </g>
        <g>
          <path style="fill:#4DCFE1;" d="M115.373,78.393c-5.411,3.084-5.44,13.156-0.063,22.468l-1.474,0.84 c-6.184-10.712-6.152-22.306,0.073-25.844L115.373,78.393z"/>
        </g>
        <g>
          <polygon style="fill:#00BAD3;" points="113.909,75.857 117.453,73.797 118.917,76.334 115.373,78.393 &#9;&#9;&#9;&#9;&#9;&#9;"/>
        </g>
      </g>
      <g style="enable-background:new    ;">
        <g>
          <path style="fill:#00BAD3;" d="M122.821,91.295l3.544-2.06c0.636-0.367,1.472-0.252,2.307,0.23l-3.544,2.06 C124.293,91.043,123.457,90.928,122.821,91.295z"/>
        </g>
        <g>
          <path style="fill:#00BAD3;" d="M125.128,91.525l3.544-2.06c0.835,0.482,1.669,1.331,2.301,2.43 c1.272,2.194,1.265,4.565-0.015,5.294l-3.544,2.06c1.28-0.73,1.287-3.1,0.015-5.294 C126.796,92.856,125.963,92.007,125.128,91.525z"/>
        </g>
        <g>
          <path style="fill:#4DCFE1;" d="M125.128,91.525c0.835,0.482,1.669,1.331,2.3,2.43c1.272,2.194,1.265,4.565-0.015,5.294 c-0.636,0.367-1.472,0.252-2.307-0.23c-0.835-0.482-1.668-1.33-2.301-2.43c-1.272-2.203-1.265-4.574,0.015-5.294 C123.457,90.928,124.293,91.043,125.128,91.525z"/>
        </g>
      </g>
      <g style="enable-background:new    ;">
        <g>
          <path style="fill:#4DCFE1;" d="M133.138,90.701c4.392,7.608,4.369,15.854-0.052,18.373l-1.464-2.536 c3.607-2.065,3.626-8.789,0.042-14.997L133.138,90.701z"/>
        </g>
        <g>
          <path style="fill:#00BAD3;" d="M133.138,90.701l3.544-2.06c4.392,7.608,4.369,15.854-0.052,18.373l-3.544,2.06 C137.507,106.555,137.53,98.309,133.138,90.701z"/>
        </g>
        <g>
          <polygon style="fill:#00BAD3;" points="131.664,91.541 135.208,89.482 136.682,88.642 133.138,90.701 &#9;&#9;&#9;&#9;&#9;&#9;"/>
        </g>
        <g>
          <path style="fill:#4DCFE1;" d="M136.399,88.843c6.184,10.703,6.152,22.297-0.073,25.844l-1.464-2.536 c5.411-3.084,5.44-13.156,0.063-22.469L136.399,88.843z"/>
        </g>
        <g>
          <path style="fill:#00BAD3;" d="M136.399,88.843l3.544-2.06c6.184,10.703,6.152,22.297-0.073,25.844l-3.544,2.06 C142.551,111.14,142.583,99.546,136.399,88.843z"/>
        </g>
        <g>
          <polygon style="fill:#00BAD3;" points="134.925,89.683 138.469,87.623 139.943,86.783 136.399,88.843 &#9;&#9;&#9;&#9;&#9;&#9;"/>
        </g>
      </g>
    </g>
  </g>
  <g>
    <g>
      <g style="enable-background:new    ;">
        <g>
          <path style="fill:#00ABBF;" d="M402.635,317.554l4.393-2.553c0.793-0.447,1.829-0.301,2.864,0.297l-4.393,2.553 C404.465,317.253,403.429,317.107,402.635,317.554z"/>
        </g>
        <g>
          <path style="fill:#00ABBF;" d="M405.499,317.85l4.393-2.553c1.035,0.597,2.068,1.646,2.856,3.006 c1.577,2.731,1.569,5.669-0.018,6.574l-4.393,2.553c1.587-0.904,1.595-3.842,0.019-6.573 C407.567,319.497,406.534,318.448,405.499,317.85z"/>
        </g>
        <g>
          <path style="fill:#00BAD3;" d="M405.499,317.85c1.035,0.597,2.068,1.646,2.856,3.006c1.577,2.731,1.568,5.669-0.019,6.573 c-0.793,0.447-1.829,0.301-2.864-0.297c-1.035-0.597-2.068-1.646-2.856-3.006c-1.567-2.725-1.558-5.663,0.018-6.573 C403.429,317.107,404.465,317.253,405.499,317.85z"/>
        </g>
      </g>
      <g style="enable-background:new    ;">
        <g>
          <path style="fill:#00ABBF;" d="M391.598,298.436l4.393-2.553c3.853-2.201,8.905-1.497,13.953,1.418l-4.393,2.553 C400.504,296.939,395.451,296.235,391.598,298.436z"/>
        </g>
        <g>
          <path style="fill:#00BAD3;" d="M395.615,305.393c2.74-1.561,6.331-1.06,9.917,1.011c3.586,2.071,7.168,5.711,9.89,10.426 l-1.827,1.041c-2.221-3.848-5.145-6.818-8.072-8.508c-2.927-1.69-5.858-2.1-8.094-0.826L395.615,305.393z"/>
        </g>
        <g>
          <path style="fill:#00ABBF;" d="M395.615,305.393l4.393-2.553c2.74-1.561,6.331-1.06,9.917,1.011 c3.586,2.071,7.169,5.711,9.89,10.425l-4.393,2.553c-2.722-4.715-6.304-8.355-9.89-10.426 C401.945,304.333,398.354,303.831,395.615,305.393z"/>
        </g>
        <g>
          <path style="fill:#00BAD3;" d="M405.551,299.854c5.048,2.914,10.09,8.039,13.923,14.677l-1.827,1.041 c-3.332-5.771-7.716-10.226-12.105-12.76c-4.389-2.534-8.781-3.146-12.13-1.232l-1.815-3.143 C395.451,296.235,400.504,296.939,405.551,299.854z"/>
        </g>
        <g>
          <path style="fill:#00ABBF;" d="M405.551,299.854l4.393-2.553c5.048,2.914,10.09,8.039,13.923,14.678l-4.393,2.553 C415.641,307.893,410.599,302.768,405.551,299.854z"/>
        </g>
      </g>
    </g>
  </g>
</svg>